<mxfile host="app.diagrams.net" agent="Mozilla/5.0 (Windows NT 10.0; Win64; x64) AppleWebKit/537.36 (KHTML, like Gecko) Chrome/131.0.0.0 Safari/537.36" version="24.8.6">
  <diagram name="Page-1" id="dx3nzqyFTjcGmjbl0QqD">
    <mxGraphModel dx="1434" dy="818" grid="1" gridSize="10" guides="1" tooltips="1" connect="1" arrows="1" fold="1" page="1" pageScale="1" pageWidth="850" pageHeight="1100" math="0" shadow="0">
      <root>
        <mxCell id="0" />
        <mxCell id="1" parent="0" />
        <mxCell id="F7PPgY3mqNymwi-HCpY--1" value="" style="rounded=0;whiteSpace=wrap;html=1;" vertex="1" parent="1">
          <mxGeometry x="40" y="10" width="270" height="290" as="geometry" />
        </mxCell>
        <mxCell id="F7PPgY3mqNymwi-HCpY--2" value="Logo" style="html=1;whiteSpace=wrap;" vertex="1" parent="1">
          <mxGeometry x="46" y="16" width="74" height="34" as="geometry" />
        </mxCell>
        <mxCell id="F7PPgY3mqNymwi-HCpY--3" value="Title" style="text;strokeColor=none;fillColor=none;html=1;fontSize=48;fontStyle=1;verticalAlign=middle;align=center;" vertex="1" parent="1">
          <mxGeometry x="129" y="38" width="100" height="40" as="geometry" />
        </mxCell>
        <UserObject label="Title reason: Lorem ipsum dolor sit amet, consectetur adipisicing elit, sed do eiusmod tempor." placeholders="1" name="Variable" id="F7PPgY3mqNymwi-HCpY--4">
          <mxCell style="text;html=1;strokeColor=none;fillColor=none;align=center;verticalAlign=middle;whiteSpace=wrap;overflow=hidden;" vertex="1" parent="1">
            <mxGeometry x="50" y="80" width="250" height="51" as="geometry" />
          </mxCell>
        </UserObject>
        <mxCell id="F7PPgY3mqNymwi-HCpY--5" value="" style="rounded=0;whiteSpace=wrap;html=1;" vertex="1" parent="1">
          <mxGeometry x="47" y="140" width="255" height="156" as="geometry" />
        </mxCell>
        <mxCell id="F7PPgY3mqNymwi-HCpY--13" value="Page 1" style="html=1;whiteSpace=wrap;container=1;recursiveResize=0;collapsible=0;" vertex="1" parent="1">
          <mxGeometry x="50" y="150" width="250" height="40" as="geometry" />
        </mxCell>
        <mxCell id="F7PPgY3mqNymwi-HCpY--15" value="Page 2" style="html=1;whiteSpace=wrap;container=1;recursiveResize=0;collapsible=0;" vertex="1" parent="1">
          <mxGeometry x="50" y="200" width="250" height="40" as="geometry" />
        </mxCell>
        <mxCell id="F7PPgY3mqNymwi-HCpY--16" value="Page 3" style="html=1;whiteSpace=wrap;container=1;recursiveResize=0;collapsible=0;" vertex="1" parent="1">
          <mxGeometry x="50" y="250" width="250" height="40" as="geometry" />
        </mxCell>
        <mxCell id="F7PPgY3mqNymwi-HCpY--20" value="&lt;font style=&quot;font-size: 30px;&quot;&gt;Picture&lt;/font&gt;" style="whiteSpace=wrap;html=1;align=center;" vertex="1" parent="1">
          <mxGeometry x="50" y="398" width="260" height="220" as="geometry" />
        </mxCell>
        <mxCell id="F7PPgY3mqNymwi-HCpY--21" value="Scenarios" style="text;strokeColor=none;fillColor=none;html=1;fontSize=24;fontStyle=1;verticalAlign=middle;align=center;" vertex="1" parent="1">
          <mxGeometry x="43" y="613" width="130" height="40" as="geometry" />
        </mxCell>
        <mxCell id="F7PPgY3mqNymwi-HCpY--22" value="&lt;ul&gt;&lt;li&gt;Value 1&lt;/li&gt;&lt;li&gt;Value 2&lt;/li&gt;&lt;li&gt;Value 3&lt;/li&gt;&lt;/ul&gt;" style="text;strokeColor=none;fillColor=none;html=1;whiteSpace=wrap;verticalAlign=middle;overflow=hidden;" vertex="1" parent="1">
          <mxGeometry x="59" y="664" width="100" height="80" as="geometry" />
        </mxCell>
        <UserObject label="Scenario 1" placeholders="1" name="Variable" id="F7PPgY3mqNymwi-HCpY--23">
          <mxCell style="text;html=1;strokeColor=none;fillColor=none;align=center;verticalAlign=middle;whiteSpace=wrap;overflow=hidden;" vertex="1" parent="1">
            <mxGeometry x="45" y="654" width="80" height="20" as="geometry" />
          </mxCell>
        </UserObject>
        <UserObject label="Scenario 2" placeholders="1" name="Variable" id="F7PPgY3mqNymwi-HCpY--24">
          <mxCell style="text;html=1;strokeColor=none;fillColor=none;align=center;verticalAlign=middle;whiteSpace=wrap;overflow=hidden;" vertex="1" parent="1">
            <mxGeometry x="46" y="744" width="80" height="20" as="geometry" />
          </mxCell>
        </UserObject>
        <mxCell id="F7PPgY3mqNymwi-HCpY--26" value="&lt;ul&gt;&lt;li&gt;Value 1&lt;/li&gt;&lt;li&gt;Value 2&lt;/li&gt;&lt;li&gt;Value 3&lt;/li&gt;&lt;/ul&gt;" style="text;strokeColor=none;fillColor=none;html=1;whiteSpace=wrap;verticalAlign=middle;overflow=hidden;" vertex="1" parent="1">
          <mxGeometry x="59" y="756" width="100" height="80" as="geometry" />
        </mxCell>
        <mxCell id="F7PPgY3mqNymwi-HCpY--27" value="" style="rounded=0;whiteSpace=wrap;html=1;" vertex="1" parent="1">
          <mxGeometry x="40" y="840" width="280" height="130" as="geometry" />
        </mxCell>
        <mxCell id="F7PPgY3mqNymwi-HCpY--28" value="&lt;h1 style=&quot;margin-top: 0px;&quot;&gt;Site purpose&lt;/h1&gt;&lt;p&gt;Lorem ipsum dolor sit amet, consectetur adipisicing elit, sed do eiusmod tempor incididunt ut labore et dolore magna aliqua.&lt;/p&gt;" style="text;html=1;whiteSpace=wrap;overflow=hidden;rounded=0;" vertex="1" parent="1">
          <mxGeometry x="50" y="294" width="252" height="100" as="geometry" />
        </mxCell>
        <mxCell id="F7PPgY3mqNymwi-HCpY--29" value="2024 WDD 131 Juan Martinez&amp;nbsp; Texas" style="text;html=1;align=center;verticalAlign=middle;whiteSpace=wrap;rounded=0;" vertex="1" parent="1">
          <mxGeometry x="71" y="850" width="217" height="30" as="geometry" />
        </mxCell>
        <mxCell id="F7PPgY3mqNymwi-HCpY--30" value="Last Date modified" style="text;html=1;align=center;verticalAlign=middle;whiteSpace=wrap;rounded=0;" vertex="1" parent="1">
          <mxGeometry x="119" y="880" width="120" height="30" as="geometry" />
        </mxCell>
        <UserObject label="Like us @" placeholders="1" name="Variable" id="F7PPgY3mqNymwi-HCpY--31">
          <mxCell style="text;html=1;strokeColor=none;fillColor=none;align=center;verticalAlign=middle;whiteSpace=wrap;overflow=hidden;" vertex="1" parent="1">
            <mxGeometry x="139" y="910" width="80" height="20" as="geometry" />
          </mxCell>
        </UserObject>
        <mxCell id="F7PPgY3mqNymwi-HCpY--33" value="Facebook" style="text;strokeColor=none;fillColor=none;align=left;verticalAlign=top;spacingLeft=4;spacingRight=4;overflow=hidden;rotatable=0;points=[[0,0.5],[1,0.5]];portConstraint=eastwest;whiteSpace=wrap;html=1;" vertex="1" parent="1">
          <mxGeometry x="79" y="940" width="70" height="26" as="geometry" />
        </mxCell>
        <mxCell id="F7PPgY3mqNymwi-HCpY--34" value="Twitter" style="text;strokeColor=none;fillColor=none;align=left;verticalAlign=top;spacingLeft=4;spacingRight=4;overflow=hidden;rotatable=0;points=[[0,0.5],[1,0.5]];portConstraint=eastwest;whiteSpace=wrap;html=1;" vertex="1" parent="1">
          <mxGeometry x="152" y="940" width="50" height="26" as="geometry" />
        </mxCell>
        <mxCell id="F7PPgY3mqNymwi-HCpY--35" value="Instagram" style="text;strokeColor=none;fillColor=none;align=left;verticalAlign=top;spacingLeft=4;spacingRight=4;overflow=hidden;rotatable=0;points=[[0,0.5],[1,0.5]];portConstraint=eastwest;whiteSpace=wrap;html=1;" vertex="1" parent="1">
          <mxGeometry x="213" y="941" width="67" height="26" as="geometry" />
        </mxCell>
        <mxCell id="F7PPgY3mqNymwi-HCpY--36" value="X Menu" style="text;strokeColor=none;fillColor=none;html=1;fontSize=14;fontStyle=1;verticalAlign=middle;align=center;" vertex="1" parent="1">
          <mxGeometry x="242" y="16" width="60" height="20" as="geometry" />
        </mxCell>
      </root>
    </mxGraphModel>
  </diagram>
</mxfile>
